<svg xmlns:xlink="http://www.w3.org/1999/xlink" xmlns="http://www.w3.org/2000/svg" width="429.00000000000006" height="83.07726421340497" viewBox="0 0 406 78.62323839310586" class="looka-1j8o68f"><defs id="SvgjsDefs3739"></defs><g id="SvgjsG3740" featurekey="symbolFeature-0" transform="matrix(0.15851459353448763,0,0,0.15851459353448763,-2.5370434723591426,-1.268116748275901)" fill="#EA5455"><title xmlns="http://www.w3.org/2000/svg">cocktail shaker, cocktail, alcohol, alcoholic, drink, bartender, beverage, bar, restaurant</title><g xmlns="http://www.w3.org/2000/svg" fill="#EA5455"><path d="M432,24a63.962,63.962,0,0,0-63.493,72H252.757a19.948,19.948,0,0,0-19.913,18.435,88.409,88.409,0,0,0-25.514-8.943V40a32.036,32.036,0,0,0-32-32h-48a32.037,32.037,0,0,0-32,32v65.462A88.144,88.144,0,0,0,23.33,192v2.562A16.011,16.011,0,0,0,16.057,209.3L18.3,236.989a96.494,96.494,0,0,0,5.359,24.725,79.559,79.559,0,0,1,3.289,12,79.789,79.789,0,0,1,1.392,12.366A799.356,799.356,0,0,0,54.851,465.252l4.788,17.955A28.023,28.023,0,0,0,86.69,504H215.96a28.02,28.02,0,0,0,27.049-20.784l4.8-17.966q2.656-9.972,5.064-20.048l2.22,36.264A24.036,24.036,0,0,0,279.051,504h129.9a24.036,24.036,0,0,0,23.956-22.533l20.4-333.106A64.006,64.006,0,0,0,432,24ZM111.33,56h80V72h-80ZM86.49,392a8,8,0,0,1-7.89-6.741,801.454,801.454,0,0,1-9.52-99.179,8,8,0,0,1,7.729-8.262c.09,0,.181,0,.271,0a8,8,0,0,1,7.99,7.734A785.32,785.32,0,0,0,94.4,382.74,8.007,8.007,0,0,1,86.49,392ZM105.5,463.749a7.992,7.992,0,0,1-9.738-5.76c-2.736-10.657-5.287-21.533-7.583-32.324a8,8,0,1,1,15.65-3.33c2.25,10.575,4.75,21.232,7.431,31.676A8,8,0,0,1,105.5,463.749ZM39.33,192a72.081,72.081,0,0,1,72-72h80a72.182,72.182,0,0,1,42.483,13.876L237.372,192ZM394.343,66.343a8,8,0,0,1,11.314,0l8,8a8,8,0,0,1-11.314,11.314l-8-8A8,8,0,0,1,394.343,66.343ZM252.913,184h27.262l14.247,36.382a7.992,7.992,0,0,0,10.366,4.532l6.61-2.588-26.039,45.1a8,8,0,0,0,2.928,10.928l47.41,27.371-4.166,57.032a8.011,8.011,0,0,0,.13,2.083l-15.429-4.518a8,8,0,0,0-9.925,5.43l-17.985,61.421a8,8,0,0,0,5.43,9.926l9.909,2.9H268.586ZM416.935,480.489A8.013,8.013,0,0,1,408.949,488h-129.9a8.013,8.013,0,0,1-7.986-7.512L269.566,456H418.434ZM419.414,440H367.925l15.158-51.768a8,8,0,0,0-5.43-9.925l-18.93-5.543,44.035,3.215q.3.021.591.021a8,8,0,0,0,7.969-7.418l4.661-63.83a8,8,0,0,0-7.4-8.561l-45.537-3.321,23.6-40.87a8,8,0,0,0-2.928-10.928L335.14,213.029l29.242-11.451a8,8,0,0,0,4.532-10.366L366.09,184h69Zm16.653-272H359.825l-14.247-36.382a8,8,0,0,0-10.366-4.532l-59.594,23.336a8,8,0,0,0-4.532,10.366L273.91,168H251.933l-3.168-51.755A4,4,0,0,1,252.757,112H435.243a4,4,0,0,1,3.992,4.244ZM440,72a8,8,0,0,1-16,0V56a8,8,0,0,1,16,0Zm29.657,5.657-8,8a8,8,0,0,1-11.314-11.314l8-8a8,8,0,0,1,11.314,11.314Z" fill="#EA5455"></path></g></g><g id="SvgjsG3741" featurekey="textGroupContainer" transform="matrix(1,0,0,1,405,7)" fill="#EA5455"><rect xmlns="http://www.w3.org/2000/svg" y="0" height="1" width="1" opacity="0" fill="#EA5455"></rect><rect xmlns="http://www.w3.org/2000/svg" y="0" x="-309" width="5" height="66" fill="#EA5455"></rect></g><g id="SvgjsG3742" featurekey="nameFeature-0" transform="matrix(1.135761166347291,0,0,1.135761166347291,112.1581336244317,11.87404987614102)" fill="#EA5455"><path d="M27.891 30.664099999999998 c-1.0742 4.4141 -4.7852 7.6172 -9.1016 8.8477 c-1.3672 0.35156 -3.0664 0.48828 -5.1367 0.48828 l-12.031 0 l2.9297 -12.734 l-2.2266 0 l3.8086 -16.406 c3.3789 0 13.633 -0.64453 17.09 0.625 c2.9297 1.1523 4.3164 3.5742 3.5938 6.7383 c-0.54688 2.3633 -1.9727 4.1992 -3.8867 5.625 c1.6016 0.80078 2.5391 2.0117 2.8516 3.418 l2.1484 0 c0.25391 1.0938 0.19531 2.1484 -0.039063 3.3984 z M17.891 30.5469 c0.625 -2.7148 -2.0508 -2.1875 -3.8086 -2.1875 l-1.0547 4.5117 c2.168 0 4.2969 0.25391 4.8633 -2.3242 z M16.719 20 c0.44922 -1.8164 -1.0547 -2.0313 -2.4805 -2.0313 l-0.74219 3.5352 c1.0938 0.097656 2.9297 -0.058594 3.2227 -1.5039 z M32.2266 27.266 l-2.2461 0 l9.1797 -16.387 l9.7461 0 l1.582 16.387 l2.1875 0 l1.2305 12.715 l-10.059 0 l-0.41016 -5.4883 l-5.5664 0 c-0.97656 1.8164 -1.8945 3.6523 -2.8711 5.4883 l-9.8828 0 z M43.183499999999995 27.676000000000002 l0 -0.41016 l-2.1289 0 l0.039063 -6.4844 l-2.6172 6.4844 l2.168 0 l-0.15625 0.41016 l2.6953 0 z M57.53910625 26.719 l-1.7773 0 l3.6328 -15.957 c3.3984 0 9.5313 -0.33203 14.375 0.3125 c4.2773 0.625 8.418 2.207 7.6953 7.3438 c-0.41016 3.1055 -2.793 6.2891 -5.3711 8.3008 l1.7578 0 c-0.46875 0.35156 -0.9375 0.72266 -1.4453 0.97656 l6.6797 12.383 l-11.719 0 l-4.8828 -9.5508 l-2.168 9.5508 l-9.8438 0 z M67.61740625 17.988 l-1.1914 5.0391 c4.707 0 7.3438 -5.0391 1.1914 -5.0391 z M100.547125 26.719 l-2.9688 13.359 l-9.9023 0 l3.0469 -13.359 l-1.7773 0 l1.9727 -8.5547 l-7.8125 0 l1.7188 -7.4023 l25.352 0 l-1.6602 7.4023 l-7.793 0 l-1.9141 8.5547 l1.7383 0 z M110.27343125 27.344 l-1.9922 0 l3.8281 -16.484 l20.918 0 l-1.6797 7.4023 l-11.152 0 l-0.58594 2.5 l10.254 0 l-1.5039 6.582 l1.9922 0 l-0.17578 0.78125 l-10.273 0 l-1.0352 4.5703 l11.113 0 l-1.6797 7.3828 l-20.957 0 z M159.96115625 27.266 l-2.9102 12.715 l-9.082 0 l-3.8672 -12.715 l-0.44922 0 l-2.9492 12.715 l-9.1992 0 l2.9492 -12.715 l-1.7773 0 l3.7695 -16.367 l10.723 0 l3.1641 10.273 l2.4023 -10.273 l9.2383 0 l-3.7891 16.367 l1.7773 0 z M188.398375 27.266 l2.1875 0 c-2.1289 6.2891 -7.5586 11.23 -14.16 12.383 c-4.8633 0.68359 -10.352 0.35156 -15.293 0.35156 l2.9297 -12.734 l-2.168 0 l3.7695 -16.406 c3.9063 0 13.789 -0.60547 17.695 1.0547 c5.4102 2.3242 6.7578 8.2422 5.5078 13.516 c-0.097656 0.625 -0.25391 1.25 -0.46875 1.8359 z M173.867375 18.066 l-2.1094 9.1992 l2.168 0 l-1.2695 5.4688 c4.2383 0 6.6016 -1.6016 7.9102 -5.4688 l-2.168 0 c0.21484 -0.52734 0.37109 -1.1523 0.54688 -1.8945 c1.2109 -5.0586 -0.27344 -7.3047 -5.0781 -7.3047 z M193.2617125 27.344 l-1.9922 0 l3.8281 -16.484 l20.918 0 l-1.6797 7.4023 l-11.152 0 l-0.58594 2.5 l10.254 0 l-1.5039 6.582 l1.9922 0 l-0.17578 0.78125 l-10.273 0 l-1.0352 4.5703 l11.113 0 l-1.6797 7.3828 l-20.957 0 z M217.2461375 26.719 l-1.7773 0 l3.6328 -15.957 c3.3984 0 9.5313 -0.33203 14.375 0.3125 c4.2773 0.625 8.418 2.207 7.6953 7.3438 c-0.41016 3.1055 -2.793 6.2891 -5.3711 8.3008 l1.7578 0 c-0.46875 0.35156 -0.9375 0.72266 -1.4453 0.97656 l6.6797 12.383 l-11.719 0 l-4.8828 -9.5508 l-2.168 9.5508 l-9.8438 0 z M227.3244375 17.988 l-1.1914 5.0391 c4.707 0 7.3438 -5.0391 1.1914 -5.0391 z" fill="#EA5455"></path></g></svg>