<svg xmlns:xlink="http://www.w3.org/1999/xlink" xmlns="http://www.w3.org/2000/svg" width="839.15" height="139.45339959112906" viewBox="0 0 369.9130434782609 61.47367153207962" class="looka-1j8o68f"><defs id="SvgjsDefs3345"></defs><g id="SvgjsG3346" featurekey="symbolFeature-0" transform="matrix(1.8964338410556183,0,0,1.8964338410556183,-57.23952112118714,-64.45768425317422)" fill="#EA5455"><path xmlns="http://www.w3.org/2000/svg" d="M48.3862305,37.2841797c-0.0091553-0.0107422-0.0232544-0.0151367-0.0328369-0.0253906  c-0.0726929-0.078125-0.1566162-0.1416016-0.2497559-0.1928711c-0.0285034-0.015625-0.055542-0.0302734-0.0854492-0.0429688  c-0.1066895-0.0461426-0.2191772-0.0783691-0.3392334-0.0849609c-0.0048828-0.0002441-0.0090332-0.0031738-0.013916-0.003418  c-0.0010376,0-0.0019531,0.0004883-0.0029907,0.0004883c-0.0028687,0-0.0053711-0.0014648-0.0082397-0.0014648l-5.9665527-0.1657715  l-1.9470215-1.9465332c-1.109375-1.1103516-2.9165039-1.109375-4.027832,0l-2.9545898,2.9541016  c-1.1108398,1.1103516-1.1108398,2.9179688,0,4.0283203l1.9470825,1.9470215l0.1657104,5.9660645  c0.000061,0.0024414,0.0012207,0.0046387,0.0012817,0.0070801c0.000061,0.001709-0.0008545,0.0031738-0.0007935,0.0046387  c0.0003052,0.0073242,0.0048828,0.013916,0.0053101,0.0212402c0.0071411,0.1166992,0.0377808,0.2263184,0.0825195,0.3303223  c0.0131836,0.0307617,0.0279541,0.0585938,0.0442505,0.0878906c0.0509644,0.0922852,0.1139526,0.175293,0.1913452,0.2475586  c0.0106201,0.0097656,0.0150757,0.0241699,0.0261841,0.0336914l17.7006836,15.1259766  c0.6494141,0.5556641,1.4550781,0.8291016,2.2597656,0.8291016c0.8964844,0,1.7915039-0.3408203,2.4638672-1.0136719  l5.6826172-5.6826172c1.2763672-1.2763672,1.3574219-3.3505859,0.1850586-4.7226562L48.3862305,37.2841797z M41.0410156,43.1044922  l-4.2358398,4.2353516l-0.1000977-3.6123047l0.2446289-0.2446289l4.715332-4.7143555l3.6113281,0.1005859L41.0410156,43.1044922z   M33.9233398,39.7890625c0-0.2265625,0.0883789-0.4394531,0.2485352-0.5996094l2.9545898-2.9541016  c0.1655273-0.1650391,0.3828125-0.2480469,0.6000977-0.2480469s0.434082,0.0830078,0.5996094,0.2480469l1.5214844,1.5214844  l-4.1542969,4.1542969l-1.5214844-1.5214844C34.0117188,40.2294922,33.9233398,40.0166016,33.9233398,39.7890625z   M61.9135742,58.2939453l-5.6831055,5.6826172c-0.5424805,0.5429688-1.425293,0.5771484-2.0097656,0.0791016L37.3417969,49.6318359  l10.2265625-10.2265625l14.4238281,16.8789062C62.4912109,56.8681641,62.456543,57.7509766,61.9135742,58.2939453z" fill="#EA5455"></path><path xmlns="http://www.w3.org/2000/svg" d="M33.0849609,52.3320312c-0.4287109-0.3505859-1.0576172-0.2851562-1.4072266,0.1425781  c-0.3491211,0.4277344-0.2851562,1.0576172,0.1425781,1.40625l7.0415039,5.7451172  c0.1860352,0.1523438,0.409668,0.2255859,0.6318359,0.2255859c0.2900391,0,0.5776367-0.1259766,0.7753906-0.3681641  c0.3491211-0.4277344,0.2851562-1.0576172-0.1425781-1.40625L33.0849609,52.3320312z" fill="#EA5455"></path><path xmlns="http://www.w3.org/2000/svg" d="M31.7978516,55.7021484c-0.4355469-0.3388672-1.0639648-0.2626953-1.4038086,0.1728516  c-0.3393555,0.4355469-0.2617188,1.0644531,0.1733398,1.4033203l4.8085938,3.7509766  c0.1831055,0.1425781,0.3994141,0.2119141,0.6147461,0.2119141c0.2973633,0,0.5917969-0.1318359,0.7890625-0.3847656  c0.3393555-0.4355469,0.2617188-1.0644531-0.1733398-1.4033203L31.7978516,55.7021484z" fill="#EA5455"></path><path xmlns="http://www.w3.org/2000/svg" d="M62.9443359,46.8300781c-0.3496094-0.4277344-0.9775391-0.4931641-1.4072266-0.1425781  c-0.4277344,0.3486328-0.4916992,0.9785156-0.1425781,1.40625l5.7451172,7.0419922  c0.1977539,0.2421875,0.4853516,0.3681641,0.7753906,0.3681641c0.222168,0,0.4458008-0.0732422,0.6318359-0.2255859  c0.4277344-0.3486328,0.4916992-0.9785156,0.1425781-1.40625L62.9443359,46.8300781z" fill="#EA5455"></path><path xmlns="http://www.w3.org/2000/svg" d="M66.3417969,45.5761719c-0.340332-0.4355469-0.9692383-0.5107422-1.4033203-0.1738281  c-0.4355469,0.3398438-0.5136719,0.96875-0.1738281,1.4042969l3.7504883,4.8095703  c0.1972656,0.2529297,0.4916992,0.3847656,0.7890625,0.3847656c0.215332,0,0.4316406-0.0693359,0.6142578-0.2109375  c0.4355469-0.3398438,0.5136719-0.96875,0.1738281-1.4042969L66.3417969,45.5761719z" fill="#EA5455"></path></g><g id="SvgjsG3347" featurekey="nameFeature-0" transform="matrix(1.2891239127729313,0,0,1.2891239127729313,93.0607990525153,-5.007203716349988)" fill="#EA5455"><path d="M20.32 27.439999999999998 c1.76 1.24 2.8 3.08 2.8 5.24 c0 4.16 -3.84 7.32 -7.84 7.32 l-13 0 l0 -24.48 l12.2 0 c3.2 0 5.84 1.72 7.24 4.56 c0.4 0.92 0.6 1.84 0.6 2.8 c0 1.8 -0.72 3.28 -2 4.56 z M8.28 21.08 l0 3.92 l6.2 0 c1.04 0 1.84 -1 1.84 -2 c0 -1.04 -0.76 -1.92 -1.84 -1.92 l-6.2 0 z M8.28 30.560000000000002 l0 3.88 l7 0 c1.08 0 1.84 -0.88 1.84 -1.92 c0 -0.52 -0.2 -1 -0.56 -1.4 c-0.36 -0.36 -0.8 -0.56 -1.28 -0.56 l-7 0 z M41.400000000000006 35.04 l-9 0 l-1.76 4.96 l-6.52 0 l9.8 -24.48 l6 0 l9.8 24.48 l-6.56 0 z M34.36 29.48 l5.08 0 l-2.52 -7.12 z M58.160000000000004 21.16 l0 5.84 l5.6 0 c1.84 0 2.92 -1.08 2.92 -2.92 s-1.08 -2.92 -2.92 -2.92 l-5.6 0 z M67.24000000000001 30.96 c1.12 1.52 2.24 3.04 3.4 4.52 c1.12 1.48 2.24 3 3.36 4.52 l-7.32 0 c-1.44 -1.92 -2.84 -3.84 -4.24 -5.76 c-1.4 -1.88 -2.84 -3.8 -4.28 -5.72 l0 11.48 l-6 0 l0 -24.48 l11.6 0 c4.56 0 8.44 3.48 8.44 8.08 c0 3.24 -2 6.08 -4.96 7.36 z M75.08000000000001 15.52 l20.4 0 l0 5.56 l-7.2 0 l0 18.92 l-6 0 l0 -18.92 l-7.2 0 l0 -5.56 z M98.60000000000001 15.52 l18.2 0 l0 5.56 l-12.2 0 l0 3.92 l9.8 0 l0 5.56 l-9.8 0 l0 3.88 l12.2 0 l0 5.56 l-18.2 0 l0 -24.48 z M135.8 15.52 l6 0 l0 24.48 l-6 0 l-9.6 -14.32 l0 14.32 l-6 0 l0 -24.48 l6 0 l9.6 14.32 l0 -14.32 z M155 40 l-8.6 0 l0 -24.48 l8.6 0 c7.48 0 12.6 4.88 12.6 12.24 c0 7.56 -5.4 12.24 -12.6 12.24 z M152.4 21.08 l0 13.36 l2.6 0 c4.24 0 6.6 -2.68 6.6 -6.68 c0 -0.92 -0.12 -1.76 -0.36 -2.6 c-1.04 -2.92 -3.32 -4.08 -6.24 -4.08 l-2.6 0 z M171.32000000000002 15.52 l18.2 0 l0 5.56 l-12.2 0 l0 3.92 l9.8 0 l0 5.56 l-9.8 0 l0 3.88 l12.2 0 l0 5.56 l-18.2 0 l0 -24.48 z M198.92000000000002 21.16 l0 5.84 l5.6 0 c1.84 0 2.92 -1.08 2.92 -2.92 s-1.08 -2.92 -2.92 -2.92 l-5.6 0 z M208 30.96 c1.12 1.52 2.24 3.04 3.4 4.52 c1.12 1.48 2.24 3 3.36 4.52 l-7.32 0 c-1.44 -1.92 -2.84 -3.84 -4.24 -5.76 c-1.4 -1.88 -2.84 -3.8 -4.28 -5.72 l0 11.48 l-6 0 l0 -24.48 l11.6 0 c4.56 0 8.44 3.48 8.44 8.08 c0 3.24 -2 6.08 -4.96 7.36 z" fill="#EA5455"></path></g></svg>